<?xml version="1.0" encoding="utf-8"?>
<!-- Generator: Adobe Illustrator 19.0.0, SVG Export Plug-In . SVG Version: 6.00 Build 0)  -->
<svg version="1.1" id="LOGO_copia_2" xmlns="http://www.w3.org/2000/svg" xmlns:xlink="http://www.w3.org/1999/xlink" x="0px"
	 y="0px" viewBox="-77 213.5 439.5 414.4" style="enable-background:new -77 213.5 439.5 414.4;" xml:space="preserve">
<style type="text/css">
	.st0{fill:#FFFFFF;}
</style>
<path class="st0" d="M16.9,542.5c0-83.5,0-166.4,0-249.8c1.5-0.1,2.9-0.4,4.4-0.4c20,0,40-0.1,60,0.2c6.1,0.1,12.3,1,18.3,2.4
	c17.6,4.3,28.9,15.6,32.8,33.3c3.8,17.1,3.7,34.4,0.1,51.6c-2.7,13.1-10.4,22.9-22.8,29.1c0.8,0.7,1.2,1.3,1.7,1.5
	c15.4,6.9,23.7,19.4,25.9,35.5c2.5,18.3,3,36.9-0.5,55.2c-4.4,23.1-20.7,38.2-44.3,40c-19.1,1.5-38.3,0.9-57.4,1.2
	C29.1,542.6,23.1,542.5,16.9,542.5z M56.4,506.6c7.8,0,15.3,0.1,22.8,0c12.3-0.1,18.8-5.7,19.4-17.9c0.6-12.4,0.5-24.9-0.1-37.4
	c-0.4-8.4-3.2-17-12.5-19.1c-9.5-2.1-19.5-1.9-29.6-2.7C56.4,456.1,56.4,481.2,56.4,506.6z M56.4,394c7.3,0,14.4,0.7,21.2-0.2
	c10-1.3,15.9-7.1,16.7-17c0.9-10.6,0.7-21.3,0.1-31.9c-0.5-7.8-4.3-14.7-12.8-15.8c-8.1-1-16.5-0.2-25.2-0.2
	C56.4,350.5,56.4,372.2,56.4,394z M185.7,398.4c0-1.8,0-3.6,0-5.3c0-31.5-0.1-63,0.1-94.5c0-4.9-1.5-6.4-6.3-6.2
	c-8.7,0.3-17.3,0.1-26,0.1c-6.9,0-6.9,0-6.9,6.8c0,37.8,0,75.6,0,113.5c0,41.2,0.1,82.3-0.1,123.5c0,5.1,1.5,6.6,6.5,6.4
	c8.6-0.4,17.3-0.1,26-0.1c6.7,0,6.7,0,6.7-6.5c0-21.3,0.1-42.7,0-64c-0.1-11.1,7.6-18.5,12.2-27.6c4.4,9.7,8.1,19.3,11.7,28.9
	c8.2,21.5,16.4,42.9,24.8,64.3c0.7,1.9,2.7,4.6,4.2,4.6c12.3,0.4,24.6,0.2,37.5,0.2c-0.8-2.6-1.3-4.5-2-6.3
	c-16.7-42.3-33.3-84.5-50.2-126.8c-1.5-3.7-1.5-6.9,0.2-10.4c14.9-30.2,29.7-60.4,44.5-90.6c2.5-5,4.8-10.1,7.7-16
	c-12,0-23,0.2-34-0.1c-4-0.1-5.9,1.4-7.5,4.9c-13.1,28.2-26.4,56.4-39.6,84.6c-2.7,5.7-5.4,11.3-8,17
	C186.8,398.7,186.3,398.5,185.7,398.4z M281.5,305c-15.1,30.8-30.1,61.6-45.3,92.3c-2.2,4.5-2.6,8.3-0.7,13.1
	c13.6,33.8,26.8,67.8,40.2,101.7c3.1,8,6.4,15.9,9.9,24.8c37-31.9,54.5-71.8,54.6-118.9c0.1-47.7-17.5-88.1-54.9-120.2
	C283.6,300.9,282.5,302.9,281.5,305z M4.1,294.2c-37.2,32.2-52.2,74.3-52.4,122.4c-0.2,48.8,14.7,91.7,53.8,125.5
	c0-83.5,0-165.5,0-247.5C5,294.5,4.6,294.3,4.1,294.2z M99.7,256c-7.1,4-13.7,8.7-20.4,13.3c-1,0.7-1.2,2.5-1.7,3.7
	c1.2,0.5,2.4,1.3,3.5,1.3c5.6-0.2,11.3-1,16.9-0.9c14.4,0.1,28.9-0.2,43.3,1c18,1.5,35.4,6.1,52.2,12.9c8.5,3.4,17.2,3.2,25.9,0.2
	c6.3-2.2,10.9-6.4,11.8-13c0.9-6.1-2.9-10.7-7.8-14.1c-20-13.9-42.8-18.3-64.7-19.9C136.5,240.9,117.4,246,99.7,256z M-39.1,530
	c-25-42.5-34.4-88.2-26.2-136.9c10.2-61.2,42.3-108.2,94.7-141c32.7-20.4,68.7-30,107.4-29.5c3.5,0,5.6-0.5,5.7-4.8
	c0.1-4.5-2.6-4.2-5.5-4.2c-49.4-0.2-93.8,14.6-132.6,45.1c-78.2,61.7-103.1,166.7-61,256.9c3.5,7.5,7.7,14.6,11.8,22.2
	c3-1.8,5.1-3.1,7.6-4.6C-38.1,531.7-38.6,530.8-39.1,530z M150,619.1c-3-0.2-5.1-0.1-5.2,3.9c-0.1,3.9,1.5,5,5,4.8
	c11.9-0.9,24-0.9,35.8-2.9c55.9-9.5,100.9-37.3,135.1-82.5c25.8-34.2,39.1-73.1,41.8-115.7c0.2-2.8,0.3-5.2-3.8-5.3
	c-3.5,0-4.9,0.8-5.2,4.6c-0.6,8.1-1.3,16.3-2.8,24.3c-11.9,64.2-46.6,112.3-103.5,144.2c-27.5,15.4-57.2,23.1-88.7,24.6
	C155.6,619.2,152.8,619.3,150,619.1z M101.8,580.3c-1.1-0.5-2.2-1.3-3.4-1.5c-11.2-1.6-21.5-5.4-31-11.6c-2-1.3-4.7-2-7.1-1.9
	c-2,0.1-4.6,1.3-5.6,2.9c-0.7,1.1,0.4,4.2,1.7,5.4c10.5,10.7,23.3,14,37.9,10.9c2.7-0.6,5.2-1.8,7.8-2.8
	C102,581.3,101.9,580.8,101.8,580.3z"/>
</svg>
